<svg width="24" height="24" viewBox="0 0 24 24" fill="none" xmlns="http://www.w3.org/2000/svg">
<g clip-path="url(#clip0_101_1355)">
<path d="M11.9984 14.0984C11.7225 14.0989 11.4493 14.0448 11.1943 13.9395C10.9393 13.8341 10.7076 13.6794 10.5126 13.4843C10.3175 13.2892 10.1628 13.0576 10.0574 12.8026C9.95203 12.5476 9.89801 12.2743 9.89844 11.9984C9.89844 10.8737 10.7984 9.89844 11.9984 9.89844C13.1232 9.89844 14.0984 10.7984 14.0984 11.9984C14.0984 13.1232 13.1232 14.0984 11.9984 14.0984Z" fill="white" fill-opacity="0.7"/>
<path fill-rule="evenodd" clip-rule="evenodd" d="M14.549 6.89844H9.44898C8.84898 6.97371 8.54898 7.04898 8.32317 7.12317C8.02317 7.19844 7.79844 7.34898 7.57371 7.57371C7.39589 7.75153 7.31189 7.92935 7.20935 8.14426C7.18317 8.20098 7.1548 8.26098 7.12317 8.32317C7.11226 8.35807 7.09807 8.39516 7.08389 8.43444C7.00535 8.64826 6.89844 8.94171 6.89844 9.44898V14.549C6.97371 15.149 7.04898 15.449 7.12317 15.6726C7.19844 15.9737 7.34898 16.1984 7.57371 16.4232C7.75153 16.6021 7.92935 16.685 8.14426 16.7875C8.20098 16.8137 8.26098 16.8421 8.32317 16.8737C8.35807 16.8846 8.39516 16.8988 8.43444 16.913C8.64826 16.9915 8.94171 17.0984 9.44898 17.0984H14.549C15.149 17.0232 15.449 16.9479 15.6726 16.8737C15.9737 16.7984 16.1984 16.6479 16.4232 16.4232C16.6021 16.2453 16.685 16.0675 16.7875 15.8526C16.8137 15.7959 16.8421 15.7359 16.8737 15.6737C16.8846 15.6388 16.8988 15.6017 16.913 15.5624C16.9915 15.3486 17.0984 15.0552 17.0984 14.5479V9.44898C17.0232 8.84898 16.9479 8.54898 16.8737 8.32535C16.7984 8.02426 16.6479 7.79953 16.4232 7.5748C16.2453 7.39698 16.0675 7.31298 15.8526 7.21044C15.7927 7.1824 15.733 7.15367 15.6737 7.12426C15.6388 7.11335 15.6017 7.09916 15.5624 7.08498C15.3486 7.00644 15.0552 6.89953 14.5479 6.89953L14.549 6.89844ZM11.9984 8.77371C11.5741 8.77052 11.1533 8.85175 10.7606 9.01267C10.3679 9.1736 10.0112 9.41101 9.71109 9.71109C9.41101 10.0112 9.1736 10.3679 9.01267 10.7606C8.85175 11.1533 8.77052 11.5741 8.77371 11.9984C8.77052 12.4228 8.85175 12.8436 9.01267 13.2363C9.1736 13.6289 9.41101 13.9857 9.71109 14.2858C10.0112 14.5859 10.3679 14.8233 10.7606 14.9842C11.1533 15.1451 11.5741 15.2264 11.9984 15.2232C12.4228 15.2264 12.8436 15.1451 13.2363 14.9842C13.6289 14.8233 13.9857 14.5859 14.2858 14.2858C14.5859 13.9857 14.8233 13.6289 14.9842 13.2363C15.1451 12.8436 15.2264 12.4228 15.2232 11.9984C15.2264 11.5741 15.1451 11.1533 14.9842 10.7606C14.8233 10.3679 14.5859 10.0112 14.2858 9.71109C13.9857 9.41101 13.6289 9.1736 13.2363 9.01267C12.8436 8.85175 12.4228 8.77052 11.9984 8.77371ZM16.049 8.69844C16.049 8.89749 15.9699 9.0884 15.8292 9.22915C15.6884 9.36991 15.4975 9.44898 15.2984 9.44898C15.0994 9.44898 14.9085 9.36991 14.7677 9.22915C14.627 9.0884 14.5479 8.89749 14.5479 8.69844C14.5479 8.49938 14.627 8.30848 14.7677 8.16772C14.9085 8.02697 15.0994 7.94789 15.2984 7.94789C15.4975 7.94789 15.6884 8.02697 15.8292 8.16772C15.9699 8.30848 16.049 8.49938 16.049 8.69844Z" fill="white" fill-opacity="0.7"/>
<path fill-rule="evenodd" clip-rule="evenodd" d="M0 0H24V24H0V0ZM9.44945 5.77527H14.5495C15.2258 5.85055 15.6753 5.92473 16.0505 6.07527C16.5 6.3 16.8 6.44945 17.1742 6.82473C17.5495 7.2 17.7742 7.57527 17.9247 7.94945C18.0753 8.32473 18.2247 8.77527 18.2247 9.44945V14.5495C18.1495 15.2258 18.0753 15.6753 17.9247 16.0505C17.7 16.5 17.5495 16.8 17.1753 17.1742C16.8 17.5495 16.4247 17.7742 16.0505 17.9247C15.5764 18.1264 15.0658 18.2285 14.5505 18.2247H9.45055C8.77418 18.1495 8.32473 18.0753 7.94945 17.9247C7.5 17.7 7.2 17.5495 6.82582 17.1753C6.50012 16.8567 6.24449 16.4736 6.07527 16.0505C5.87364 15.5764 5.77154 15.0658 5.77527 14.5505V9.45055C5.85055 8.77418 5.92473 8.32473 6.07527 7.94945C6.3 7.5 6.44945 7.2 6.82473 6.82582C7.2 6.44945 7.57527 6.22582 7.94945 6.07527C8.42365 5.87364 8.93419 5.77154 9.44945 5.77527Z" fill="white" fill-opacity="0.7"/>
</g>
<defs>
<clipPath id="clip0_101_1355">
<rect width="24" height="24" rx="12" fill="white"/>
</clipPath>
</defs>
</svg>
