<svg width="24" height="24" viewBox="0 0 24 24" fill="none" xmlns="http://www.w3.org/2000/svg">
<g clip-path="url(#clip0_101_1348)">
<path fill-rule="evenodd" clip-rule="evenodd" d="M0 0H24V24H0V0ZM6.15055 9.97527V18H8.7V9.97527H6.15055ZM6 7.42473C6 8.24946 6.6 8.85055 7.42473 8.85055C8.24946 8.85055 8.85055 8.25055 8.85055 7.42473C8.85055 6.6 8.25055 6 7.42473 6C6.67527 6 6 6.6 6 7.42473ZM15.4495 18H17.8495V13.0505C17.8495 10.5742 16.3505 9.75055 14.9258 9.75055C13.6495 9.75055 12.7495 10.5753 12.5258 11.1V9.97527H10.1258V18H12.6753V13.7247C12.6753 12.6 13.4247 12 14.1753 12C14.9247 12 15.4495 12.3753 15.4495 13.6495V18Z" fill="white" fill-opacity="0.7"/>
</g>
<defs>
<clipPath id="clip0_101_1348">
<rect width="24" height="24" rx="12" fill="white"/>
</clipPath>
</defs>
</svg>
